<svg width="45" height="42" viewBox="0 0 45 42" xmlns="http://www.w3.org/2000/svg"><g stroke="#FFF" fill="none" fill-rule="evenodd" stroke-linecap="round" stroke-linejoin="round"><path d="M40.5 41.5h-36c-2.21 0-4-1.79-4-4v-33c0-2.21 1.79-4 4-4h36c2.21 0 4 1.79 4 4v33c0 2.21-1.79 4-4 4zM.5 11.5H44"/><path d="M7.5 6c0-.828-.672-1.5-1.5-1.5S4.5 5.172 4.5 6 5.172 7.5 6 7.5 7.5 6.828 7.5 6zM13.5 6c0-.828-.672-1.5-1.5-1.5s-1.5.672-1.5 1.5.672 1.5 1.5 1.5 1.5-.672 1.5-1.5zM19.5 6c0-.828-.672-1.5-1.5-1.5s-1.5.672-1.5 1.5.672 1.5 1.5 1.5 1.5-.672 1.5-1.5zM32.5 26.5c0-5.523-4.478-10-10-10-5.523 0-10 4.477-10 10s4.477 10 10 10c5.522 0 10-4.477 10-10z"/><path d="M24.23 28.843c-.198-.09-.324-.267-.33-.462-.008-.196.107-.38.298-.48 1.203-.628 1.95-1.896 1.95-3.31 0-2.035-1.562-3.69-3.48-3.69-1.92 0-3.483 1.655-3.483 3.69 0 1.417.75 2.687 1.957 3.314.19.1.307.283.3.48-.005.195-.132.373-.33.463-1.66.758-3.445 2.327-3.445 3.982v2.422c1.433.793 3.08 1.248 4.833 1.248 1.894 0 3.657-.536 5.167-1.45V32.83c0-1.666-1.78-3.235-3.437-3.987z"/></g></svg>