<?xml version="1.0" encoding="UTF-8" standalone="no"?>
<svg width="37px" height="43px" viewBox="0 0 37 43" version="1.1" xmlns="http://www.w3.org/2000/svg" xmlns:xlink="http://www.w3.org/1999/xlink">
    <!-- Generator: Sketch 45.2 (43514) - http://www.bohemiancoding.com/sketch -->
    <title>Group</title>
    <desc>Created with Sketch.</desc>
    <defs></defs>
    <g id="главная-услуги" stroke="none" stroke-width="1" fill="none" fill-rule="evenodd">
        <g id="PIK_Главная_1920" transform="translate(-924.000000, -601.000000)" stroke="#FFFFFF">
            <g id="Group-4" transform="translate(0.000000, 552.000000)">
                <g id="Group-15" transform="translate(924.000000, 48.000000)">
                    <g id="Group" transform="translate(0.500000, 1.500000)">
                        <polyline id="Path" points="28 19.7037037 28 38 0 38 0 0 28 0 28 14.7777778"></polyline>
                        <path d="M8.5,6 L21.5,6" id="Path"></path>
                        <circle id="Oval" cx="5.5" cy="6.5" r="1.5"></circle>
                        <path d="M9,13 L18,13" id="Shape"></path>
                        <path d="M9,8 L18,8" id="Shape-Copy-2"></path>
                        <path d="M8.5,16 L17.5,16" id="Shape-Copy"></path>
                        <circle id="Oval" cx="5.5" cy="13.5" r="1.5"></circle>
                        <path d="M8,30 L4,30 L8,30 Z" id="Path"></path>
                        <path d="M23,30 L10,30 L23,30 Z" id="Path"></path>
                        <polygon id="Rectangle-5" transform="translate(26.000000, 19.000000) rotate(-315.000000) translate(-26.000000, -19.000000) " points="26.0011988 31 24.0009263 28.3344893 24 7.0028612 27.9999567 7 28 28.3309196"></polygon>
                        <path d="M18,24 L21,27" id="Path-3"></path>
                        <path d="M31,11 L34,14" id="Path-3-Copy"></path>
                        <path d="M28.2307692,4 L32,4 L32,11.8082192 M32,15.9726027 L32,42 L4,42 L4,38.4827842" id="Shape"></path>
                    </g>
                </g>
            </g>
        </g>
    </g>
</svg>